<svg id="visual" viewBox="0 0 960 540" width="960" height="540" xmlns="http://www.w3.org/2000/svg" xmlns:xlink="http://www.w3.org/1999/xlink" version="1.1"><rect x="0" y="0" width="960" height="540" fill="#001220"></rect><path d="M442 540L461.3 527.2C480.7 514.3 519.3 488.7 527.2 463C535 437.3 512 411.7 493.2 386C474.3 360.3 459.7 334.7 466.8 308.8C474 283 503 257 501.3 231.2C499.7 205.3 467.3 179.7 456.8 154C446.3 128.3 457.7 102.7 445.2 77C432.7 51.3 396.3 25.7 378.2 12.8L360 0L960 0L960 12.8C960 25.7 960 51.3 960 77C960 102.7 960 128.3 960 154C960 179.7 960 205.3 960 231.2C960 257 960 283 960 308.8C960 334.7 960 360.3 960 386C960 411.7 960 437.3 960 463C960 488.7 960 514.3 960 527.2L960 540Z" fill="#fa7268"></path><path d="M449 540L472.2 527.2C495.3 514.3 541.7 488.7 565.8 463C590 437.3 592 411.7 570.7 386C549.3 360.3 504.7 334.7 489.2 308.8C473.7 283 487.3 257 522.7 231.2C558 205.3 615 179.7 626.8 154C638.7 128.3 605.3 102.7 604.8 77C604.3 51.3 636.7 25.7 652.8 12.8L669 0L960 0L960 12.8C960 25.7 960 51.3 960 77C960 102.7 960 128.3 960 154C960 179.7 960 205.3 960 231.2C960 257 960 283 960 308.8C960 334.7 960 360.3 960 386C960 411.7 960 437.3 960 463C960 488.7 960 514.3 960 527.2L960 540Z" fill="#ef5f67"></path><path d="M732 540L733 527.2C734 514.3 736 488.7 719.2 463C702.3 437.3 666.7 411.7 661.3 386C656 360.3 681 334.7 684 308.8C687 283 668 257 647.5 231.2C627 205.3 605 179.7 620 154C635 128.3 687 102.7 714.5 77C742 51.3 745 25.7 746.5 12.8L748 0L960 0L960 12.8C960 25.7 960 51.3 960 77C960 102.7 960 128.3 960 154C960 179.7 960 205.3 960 231.2C960 257 960 283 960 308.8C960 334.7 960 360.3 960 386C960 411.7 960 437.3 960 463C960 488.7 960 514.3 960 527.2L960 540Z" fill="#e34c67"></path><path d="M791 540L796.3 527.2C801.7 514.3 812.3 488.7 792 463C771.7 437.3 720.3 411.7 704 386C687.7 360.3 706.3 334.7 705.5 308.8C704.7 283 684.3 257 679.8 231.2C675.3 205.3 686.7 179.7 706.2 154C725.7 128.3 753.3 102.7 774.7 77C796 51.3 811 25.7 818.5 12.8L826 0L960 0L960 12.8C960 25.7 960 51.3 960 77C960 102.7 960 128.3 960 154C960 179.7 960 205.3 960 231.2C960 257 960 283 960 308.8C960 334.7 960 360.3 960 386C960 411.7 960 437.3 960 463C960 488.7 960 514.3 960 527.2L960 540Z" fill="#d53867"></path><path d="M798 540L799.5 527.2C801 514.3 804 488.7 801.5 463C799 437.3 791 411.7 800.7 386C810.3 360.3 837.7 334.7 849.7 308.8C861.7 283 858.3 257 848.8 231.2C839.3 205.3 823.7 179.7 830.5 154C837.3 128.3 866.7 102.7 869 77C871.3 51.3 846.7 25.7 834.3 12.8L822 0L960 0L960 12.8C960 25.7 960 51.3 960 77C960 102.7 960 128.3 960 154C960 179.7 960 205.3 960 231.2C960 257 960 283 960 308.8C960 334.7 960 360.3 960 386C960 411.7 960 437.3 960 463C960 488.7 960 514.3 960 527.2L960 540Z" fill="#c62368"></path></svg>